<?xml version="1.0" standalone="no"?><!DOCTYPE svg PUBLIC "-//W3C//DTD SVG 1.1//EN" "http://www.w3.org/Graphics/SVG/1.1/DTD/svg11.dtd"><svg t="1664074593977" class="icon" viewBox="0 0 1024 1024" version="1.1" xmlns="http://www.w3.org/2000/svg" p-id="11330" xmlns:xlink="http://www.w3.org/1999/xlink" width="200" height="200"><path d="M384 480H320v64h64v-64z m-128 0H192v64h64v-64z m-128 0H64v64h64v-64zM416 384h-64v64h64V384z m0-128h-64v64h64V256z m0-128h-64v64h64V128zM572.416 461.12a32 32 0 0 1 19.52 5.248l411.136 271.488a32 32 0 0 1-13.824 58.432l-219.264 26.24-140.672 183.36a32 32 0 0 1-57.28-17.536l-29.632-493.376a32 32 0 0 1 30.016-33.856z m37.696 93.952l20.608 343.872 104.96-136.768 159.232-19.072-284.8-188.032z" p-id="11331"></path><path d="M896 64v448h-64V128H64v704h448v64H0V64h896z" p-id="11332"></path></svg>