<?xml version="1.0" standalone="no"?>
<!DOCTYPE svg PUBLIC "-//W3C//DTD SVG 1.1//EN" "http://www.w3.org/Graphics/SVG/1.1/DTD/svg11.dtd"><svg t="1665849771598"
    class="icon" viewBox="0 0 1041 1024" version="1.1" xmlns="http://www.w3.org/2000/svg" p-id="5965"
    xmlns:xlink="http://www.w3.org/1999/xlink" width="203.3203125" height="200">
    <path
        d="M58.828283 129.939394h735.547475v285.349495h58.828282V71.111111H0v764.89697h382.448485v-58.828283H58.828283V129.939394z m717.834343 579.620202c-35.29697 0-64.775758 29.478788-64.775757 67.620202 0 35.29697 29.478788 67.620202 64.775757 67.620202s64.775758-29.478788 64.775758-67.620202c2.973737-35.29697-26.505051-67.620202-64.775758-67.620202z m0 0"
        p-id="5966"></path>
    <path
        d="M776.662626 600.694949c-173.640404 0-264.791919 176.484848-264.791919 176.484849s67.620202 176.484848 264.791919 176.484848c179.458586 0 264.791919-176.484848 264.791919-176.484848s-88.177778-176.484848-264.791919-176.484849z m0 288.323233c-64.775758 0-108.864646-47.062626-108.864646-111.838384 0-61.80202 47.062626-108.864646 108.864646-108.864646 64.775758 0 108.864646 47.062626 108.864647 108.864646 2.973737 61.80202-44.088889 111.838384-108.864647 111.838384z m-555.959596-670.771717h58.828283v353.09899H220.70303V218.246465z m176.484849 76.412121h58.828283v276.557576h-58.828283V294.658586z m176.484848 50.036363h58.828283v226.521213h-58.828283V344.694949z m0 0"
        p-id="5967"></path>
</svg>